<svg xmlns="http://www.w3.org/2000/svg" xmlns:xlink="http://www.w3.org/1999/xlink" version="1.1" id="Layer_1" x="0px" y="0px" width="100px" height="100px" viewBox="0 0 100 100" enable-background="new 0 0 100 100" xml:space="preserve">
<path fill="#000000" d="M692.673,171.833l2.181-11.289L751,169c0,0-3-17-8.5-19.5c-1.812-0.823-19.299-8.536-41.938-18.508  l3.443-17.825h-22.667l1.976,10.229c-12.734-5.607-26.163-11.52-38.826-17.094l2.344-14.617h-22.667l0.979,6.103  C603.2,88.128,587,81,587,81c0-14.5-2.5-97.5-27.5-97.5S532,81,532,81s-16.108,7.088-37.959,16.705l0.965-6.02h-22.667l2.333,14.545  c-12.647,5.567-26.066,11.475-38.798,17.082l1.96-10.145h-22.667l3.43,17.754c-22.715,10.006-40.281,17.753-42.097,18.579  C371,152,368,169,368,169l56.314-8.481l2.186,11.314l2.317-11.993l53.168-8.007l1.687,10.519l1.771-11.039L534,144l7.5,125.5  L489,302l0.5,7.5l67.508-9.645l2.492,18.979l2.398-18.991L629.5,309.5l0.5-7.5l-52.5-32.5L585,144l48.735,7.339l1.766,11.012  l1.683-10.493l53.178,8.009L692.673,171.833z"/>
<path fill="#000000" d="M449.987,493.117c-0.348,0.267-2.934,1.507-9.333-3.556s0-7.862,0-7.862S450.335,492.851,449.987,493.117z"/>
<path fill="#000000" d="M689.724,463.684l5.712-3.721l-47.294-26.816l-0.951-0.756l0.045-0.024v-36l-5.25,2.5l-7.494,19.875  l-21.001-23.612l-6.292,3.262l5.735,40.413c-43.95,22.156-74.38,34.882-101.435,49.126l-21.891-25.097l7.798-5.954l-9.403,4.11  l-24.711-28.346l8.228-6.651l-10.327,4.25l-26.181-30.021c0,0-11.834,9.292-10.611,13.006c0.397,1.223,4.482,12.963,9.782,28.134  l-9.268,3.815c0,0-6.939,2.856,0,8.347c5.437,4.302,8.811,2.853,10.021,2.021l0.512-0.413l0.001-0.001l2.759-2.226  c2.965,8.501,6.098,17.462,9.044,25.908l-6.794,2.973c-1.059,0.551-5.465,3.261,0.217,7.756c6.398,5.062,8.984,3.822,9.333,3.556  l0.001,0.004l1.769-1.351c3.986,11.414,7.154,20.478,8.345,23.885c-33.699,18.78-44.592,26.581-50.22,31.153  c-10.667,8.667-12.958,23.766-12.958,23.766l0.026-0.016c-0.258,1.864,0.266,3.447,1.786,4.649  c14.634,11.578,82.474-25.878,94.068-32.622c0,0,15.182,4.187,35.753,9.859c0,0-5.014,2.194,0.144,6.814l1.968,1.557  c5.521,3.99,7.803,2.894,8.128,2.645l0.003,0.01l7.885-6.028c11.867,3.272,24.455,6.74,36.392,10.029l-2.312,0.952l0.003,0.001  c0,0-6.939,2.856,0,8.347c5.146,4.071,8.447,2.988,9.813,2.157l8.67-7c21.223,5.844,37.626,10.354,39.348,10.807  c5.219,1.383,20.567-5.13,20.567-5.13l-39.625-22.071l7.751-6.259l-10.918,4.493l-37.534-20.902l7.407-5.66l-9.842,4.307  l-34.391-19.156l90.971-57.846L689.724,463.684z"/>
<polygon fill="none" points="-447.585,217.25 -411.685,245.653 -452.635,269.298 -488.536,240.894 "/>
<path opacity="0.75" fill="#000000" d="M-420.607,245.086l0.915-0.596l-7.574-4.295l-0.152-0.12l0.007-0.005v-5.765l-0.841,0.4  l-1.2,3.183l-3.363-3.781l-1.007,0.522l0.918,6.472c-7.038,3.549-11.911,5.586-16.244,7.867l-3.506-4.019l1.249-0.954l-1.506,0.659  l-3.958-4.54l1.318-1.065l-1.654,0.681l-4.192-4.808c0,0-1.895,1.488-1.699,2.083c0.063,0.195,0.718,2.076,1.566,4.505l-1.484,0.611  c0,0-1.111,0.458,0,1.337c0.871,0.688,1.411,0.457,1.605,0.323l0.082-0.066l0,0l0.442-0.355c0.475,1.361,0.977,2.796,1.449,4.148  l-1.088,0.477c-0.169,0.088-0.875,0.521,0.035,1.242c1.025,0.811,1.439,0.611,1.495,0.568l0,0.001l0.283-0.216  c0.638,1.828,1.146,3.279,1.336,3.824c-5.397,3.008-7.141,4.258-8.042,4.989c-1.708,1.388-2.075,3.807-2.075,3.807l0.004-0.003  c-0.042,0.299,0.042,0.553,0.286,0.745c2.344,1.854,13.208-4.145,15.065-5.225c0,0,2.431,0.67,5.726,1.579  c0,0-0.803,0.351,0.023,1.091l0.315,0.25c0.884,0.639,1.25,0.463,1.302,0.423l0.001,0.002l1.263-0.966  c1.9,0.524,3.916,1.079,5.828,1.606l-0.37,0.152h0c0,0-1.111,0.458,0,1.337c0.824,0.652,1.353,0.479,1.571,0.346l1.389-1.121  c3.399,0.936,6.025,1.658,6.301,1.73c0.836,0.222,3.294-0.821,3.294-0.821l-6.346-3.535l1.241-1.002l-1.749,0.72l-6.011-3.348  l1.186-0.906l-1.576,0.689l-5.507-3.067l14.568-9.265L-420.607,245.086z"/>
<path fill="#000000" d="M992.555-161.5l-3.805-78h-105v-11h53.5v-27h-123v27h53.5v11h-105l-3.805,78h-9.695v45h7.5h238h7.5v-45  H992.555z M885.611-224.5c3.037,0,5.5,2.462,5.5,5.5s-2.463,5.5-5.5,5.5c-3.038,0-5.5-2.462-5.5-5.5S882.573-224.5,885.611-224.5z   M885.611-203.5c3.037,0,5.5,2.462,5.5,5.5s-2.463,5.5-5.5,5.5c-3.038,0-5.5-2.462-5.5-5.5S882.573-203.5,885.611-203.5z   M885.611-182.5c3.037,0,5.5,2.462,5.5,5.5s-2.463,5.5-5.5,5.5c-3.038,0-5.5-2.462-5.5-5.5S882.573-182.5,885.611-182.5z   M864.611-224.5c3.037,0,5.5,2.462,5.5,5.5s-2.463,5.5-5.5,5.5c-3.038,0-5.5-2.462-5.5-5.5S861.573-224.5,864.611-224.5z   M864.611-203.5c3.037,0,5.5,2.462,5.5,5.5s-2.463,5.5-5.5,5.5c-3.038,0-5.5-2.462-5.5-5.5S861.573-203.5,864.611-203.5z   M864.611-182.5c3.037,0,5.5,2.462,5.5,5.5s-2.463,5.5-5.5,5.5c-3.038,0-5.5-2.462-5.5-5.5S861.573-182.5,864.611-182.5z   M780.611-171.5c-3.038,0-5.5-2.462-5.5-5.5s2.462-5.5,5.5-5.5c3.037,0,5.5,2.462,5.5,5.5S783.648-171.5,780.611-171.5z   M780.611-192.5c-3.038,0-5.5-2.462-5.5-5.5s2.462-5.5,5.5-5.5c3.037,0,5.5,2.462,5.5,5.5S783.648-192.5,780.611-192.5z   M780.611-213.5c-3.038,0-5.5-2.462-5.5-5.5s2.462-5.5,5.5-5.5c3.037,0,5.5,2.462,5.5,5.5S783.648-213.5,780.611-213.5z   M801.611-171.5c-3.038,0-5.5-2.462-5.5-5.5s2.462-5.5,5.5-5.5c3.037,0,5.5,2.462,5.5,5.5S804.648-171.5,801.611-171.5z   M801.611-192.5c-3.038,0-5.5-2.462-5.5-5.5s2.462-5.5,5.5-5.5c3.037,0,5.5,2.462,5.5,5.5S804.648-192.5,801.611-192.5z   M801.611-213.5c-3.038,0-5.5-2.462-5.5-5.5s2.462-5.5,5.5-5.5c3.037,0,5.5,2.462,5.5,5.5S804.648-213.5,801.611-213.5z   M822.611-171.5c-3.038,0-5.5-2.462-5.5-5.5s2.462-5.5,5.5-5.5c3.037,0,5.5,2.462,5.5,5.5S825.648-171.5,822.611-171.5z   M822.611-192.5c-3.038,0-5.5-2.462-5.5-5.5s2.462-5.5,5.5-5.5c3.037,0,5.5,2.462,5.5,5.5S825.648-192.5,822.611-192.5z   M822.611-213.5c-3.038,0-5.5-2.462-5.5-5.5s2.462-5.5,5.5-5.5c3.037,0,5.5,2.462,5.5,5.5S825.648-213.5,822.611-213.5z   M843.611-171.5c-3.038,0-5.5-2.462-5.5-5.5s2.462-5.5,5.5-5.5c3.037,0,5.5,2.462,5.5,5.5S846.648-171.5,843.611-171.5z   M843.611-192.5c-3.038,0-5.5-2.462-5.5-5.5s2.462-5.5,5.5-5.5c3.037,0,5.5,2.462,5.5,5.5S846.648-192.5,843.611-192.5z   M843.611-213.5c-3.038,0-5.5-2.462-5.5-5.5s2.462-5.5,5.5-5.5c3.037,0,5.5,2.462,5.5,5.5S846.648-213.5,843.611-213.5z   M901.75-132.5h-52v-9h52V-132.5z M906.611-171.5c-3.038,0-5.5-2.462-5.5-5.5s2.462-5.5,5.5-5.5c3.037,0,5.5,2.462,5.5,5.5  S909.648-171.5,906.611-171.5z M906.611-192.5c-3.038,0-5.5-2.462-5.5-5.5s2.462-5.5,5.5-5.5c3.037,0,5.5,2.462,5.5,5.5  S909.648-192.5,906.611-192.5z M906.611-213.5c-3.038,0-5.5-2.462-5.5-5.5s2.462-5.5,5.5-5.5c3.037,0,5.5,2.462,5.5,5.5  S909.648-213.5,906.611-213.5z M927.611-171.5c-3.038,0-5.5-2.462-5.5-5.5s2.462-5.5,5.5-5.5c3.037,0,5.5,2.462,5.5,5.5  S930.648-171.5,927.611-171.5z M927.611-192.5c-3.038,0-5.5-2.462-5.5-5.5s2.462-5.5,5.5-5.5c3.037,0,5.5,2.462,5.5,5.5  S930.648-192.5,927.611-192.5z M927.611-213.5c-3.038,0-5.5-2.462-5.5-5.5s2.462-5.5,5.5-5.5c3.037,0,5.5,2.462,5.5,5.5  S930.648-213.5,927.611-213.5z M948.611-171.5c-3.038,0-5.5-2.462-5.5-5.5s2.462-5.5,5.5-5.5c3.037,0,5.5,2.462,5.5,5.5  S951.648-171.5,948.611-171.5z M948.611-192.5c-3.038,0-5.5-2.462-5.5-5.5s2.462-5.5,5.5-5.5c3.037,0,5.5,2.462,5.5,5.5  S951.648-192.5,948.611-192.5z M948.611-213.5c-3.038,0-5.5-2.462-5.5-5.5s2.462-5.5,5.5-5.5c3.037,0,5.5,2.462,5.5,5.5  S951.648-213.5,948.611-213.5z M969.611-171.5c-3.038,0-5.5-2.462-5.5-5.5s2.462-5.5,5.5-5.5c3.037,0,5.5,2.462,5.5,5.5  S972.648-171.5,969.611-171.5z M969.611-192.5c-3.038,0-5.5-2.462-5.5-5.5s2.462-5.5,5.5-5.5c3.037,0,5.5,2.462,5.5,5.5  S972.648-192.5,969.611-192.5z M969.611-213.5c-3.038,0-5.5-2.462-5.5-5.5s2.462-5.5,5.5-5.5c3.037,0,5.5,2.462,5.5,5.5  S972.648-213.5,969.611-213.5z"/>
<path opacity="0.6" fill="#000000" d="M70.108-262.981l-2.788-57.167H-9.637v-8.062h39.211V-348h-90.149v19.789h39.212v8.062H-98.32  l-2.788,57.167h-7.106V-230h5.497H71.717h5.498v-32.981H70.108z M-8.272-309.155c2.226,0,4.03,1.805,4.03,4.031  c0,2.226-1.805,4.031-4.03,4.031c-2.227,0-4.031-1.805-4.031-4.031C-12.304-307.351-10.499-309.155-8.272-309.155z M-8.272-293.764  c2.226,0,4.03,1.805,4.03,4.031c0,2.226-1.805,4.031-4.03,4.031c-2.227,0-4.031-1.805-4.031-4.031  C-12.304-291.959-10.499-293.764-8.272-293.764z M-8.272-278.373c2.226,0,4.03,1.805,4.03,4.031c0,2.227-1.805,4.031-4.03,4.031  c-2.227,0-4.031-1.805-4.031-4.031C-12.304-276.568-10.499-278.373-8.272-278.373z M-23.664-309.155  c2.226,0,4.031,1.805,4.031,4.031c0,2.226-1.806,4.031-4.031,4.031c-2.227,0-4.031-1.805-4.031-4.031  C-27.695-307.351-25.891-309.155-23.664-309.155z M-23.664-293.764c2.226,0,4.031,1.805,4.031,4.031  c0,2.226-1.806,4.031-4.031,4.031c-2.227,0-4.031-1.805-4.031-4.031C-27.695-291.959-25.891-293.764-23.664-293.764z   M-23.664-278.373c2.226,0,4.031,1.805,4.031,4.031c0,2.227-1.806,4.031-4.031,4.031c-2.227,0-4.031-1.805-4.031-4.031  C-27.695-276.568-25.891-278.373-23.664-278.373z M-85.229-270.311c-2.227,0-4.031-1.805-4.031-4.031  c0-2.226,1.805-4.031,4.031-4.031s4.031,1.805,4.031,4.031C-81.198-272.115-83.003-270.311-85.229-270.311z M-85.229-285.702  c-2.227,0-4.031-1.805-4.031-4.031c0-2.227,1.805-4.031,4.031-4.031s4.031,1.805,4.031,4.031  C-81.198-287.507-83.003-285.702-85.229-285.702z M-85.229-301.093c-2.227,0-4.031-1.805-4.031-4.031  c0-2.227,1.805-4.031,4.031-4.031s4.031,1.805,4.031,4.031C-81.198-302.898-83.003-301.093-85.229-301.093z M-69.838-270.311  c-2.227,0-4.031-1.805-4.031-4.031c0-2.226,1.805-4.031,4.031-4.031c2.226,0,4.031,1.805,4.031,4.031  C-65.807-272.115-67.612-270.311-69.838-270.311z M-69.838-285.702c-2.227,0-4.031-1.805-4.031-4.031  c0-2.227,1.805-4.031,4.031-4.031c2.226,0,4.031,1.805,4.031,4.031C-65.807-287.507-67.612-285.702-69.838-285.702z   M-69.838-301.093c-2.227,0-4.031-1.805-4.031-4.031c0-2.227,1.805-4.031,4.031-4.031c2.226,0,4.031,1.805,4.031,4.031  C-65.807-302.898-67.612-301.093-69.838-301.093z M-54.446-270.311c-2.228,0-4.031-1.805-4.031-4.031  c0-2.226,1.804-4.031,4.031-4.031c2.226,0,4.03,1.805,4.03,4.031C-50.416-272.115-52.221-270.311-54.446-270.311z M-54.446-285.702  c-2.228,0-4.031-1.805-4.031-4.031c0-2.227,1.804-4.031,4.031-4.031c2.226,0,4.03,1.805,4.03,4.031  C-50.416-287.507-52.221-285.702-54.446-285.702z M-54.446-301.093c-2.228,0-4.031-1.805-4.031-4.031  c0-2.227,1.804-4.031,4.031-4.031c2.226,0,4.03,1.805,4.03,4.031C-50.416-302.898-52.221-301.093-54.446-301.093z M-39.056-270.311  c-2.227,0-4.031-1.805-4.031-4.031c0-2.226,1.805-4.031,4.031-4.031s4.031,1.805,4.031,4.031  C-35.024-272.115-36.829-270.311-39.056-270.311z M-39.056-285.702c-2.227,0-4.031-1.805-4.031-4.031  c0-2.227,1.805-4.031,4.031-4.031s4.031,1.805,4.031,4.031C-35.024-287.507-36.829-285.702-39.056-285.702z M-39.056-301.093  c-2.227,0-4.031-1.805-4.031-4.031c0-2.227,1.805-4.031,4.031-4.031s4.031,1.805,4.031,4.031  C-35.024-302.898-36.829-301.093-39.056-301.093z M3.556-241.727h-38.112v-6.596H3.556V-241.727z M7.119-270.311  c-2.227,0-4.031-1.805-4.031-4.031c0-2.226,1.805-4.031,4.031-4.031c2.226,0,4.031,1.805,4.031,4.031  C11.15-272.115,9.345-270.311,7.119-270.311z M7.119-285.702c-2.227,0-4.031-1.805-4.031-4.031c0-2.227,1.805-4.031,4.031-4.031  c2.226,0,4.031,1.805,4.031,4.031C11.15-287.507,9.345-285.702,7.119-285.702z M7.119-301.093c-2.227,0-4.031-1.805-4.031-4.031  c0-2.227,1.805-4.031,4.031-4.031c2.226,0,4.031,1.805,4.031,4.031C11.15-302.898,9.345-301.093,7.119-301.093z M22.51-270.311  c-2.227,0-4.031-1.805-4.031-4.031c0-2.226,1.805-4.031,4.031-4.031s4.031,1.805,4.031,4.031  C26.541-272.115,24.736-270.311,22.51-270.311z M22.51-285.702c-2.227,0-4.031-1.805-4.031-4.031c0-2.227,1.805-4.031,4.031-4.031  s4.031,1.805,4.031,4.031C26.541-287.507,24.736-285.702,22.51-285.702z M22.51-301.093c-2.227,0-4.031-1.805-4.031-4.031  c0-2.227,1.805-4.031,4.031-4.031s4.031,1.805,4.031,4.031C26.541-302.898,24.736-301.093,22.51-301.093z M37.901-270.311  c-2.227,0-4.031-1.805-4.031-4.031c0-2.226,1.805-4.031,4.031-4.031c2.226,0,4.031,1.805,4.031,4.031  C41.933-272.115,40.127-270.311,37.901-270.311z M37.901-285.702c-2.227,0-4.031-1.805-4.031-4.031c0-2.227,1.805-4.031,4.031-4.031  c2.226,0,4.031,1.805,4.031,4.031C41.933-287.507,40.127-285.702,37.901-285.702z M37.901-301.093c-2.227,0-4.031-1.805-4.031-4.031  c0-2.227,1.805-4.031,4.031-4.031c2.226,0,4.031,1.805,4.031,4.031C41.933-302.898,40.127-301.093,37.901-301.093z M53.293-270.311  c-2.227,0-4.031-1.805-4.031-4.031c0-2.226,1.805-4.031,4.031-4.031c2.226,0,4.031,1.805,4.031,4.031  C57.324-272.115,55.519-270.311,53.293-270.311z M53.293-285.702c-2.227,0-4.031-1.805-4.031-4.031c0-2.227,1.805-4.031,4.031-4.031  c2.226,0,4.031,1.805,4.031,4.031C57.324-287.507,55.519-285.702,53.293-285.702z M53.293-301.093c-2.227,0-4.031-1.805-4.031-4.031  c0-2.227,1.805-4.031,4.031-4.031c2.226,0,4.031,1.805,4.031,4.031C57.324-302.898,55.519-301.093,53.293-301.093z"/>
<path fill="#000000" d="M-130.849,534.295l0.524-2.713l13.499,2.033c0,0-0.722-4.088-2.044-4.689  c-0.436-0.197-4.64-2.053-10.082-4.449l0.827-4.285h-5.449l0.475,2.459c-3.061-1.348-6.289-2.77-9.334-4.109l0.563-3.514h-5.448  l0.235,1.465c-5.276-2.32-9.172-4.035-9.172-4.035c0-3.484-0.601-23.439-6.61-23.439c-6.011,0-6.611,23.439-6.611,23.439  s-3.873,1.705-9.126,4.018l0.232-1.447h-5.45l0.562,3.496c-3.041,1.338-6.268,2.758-9.327,4.107l0.47-2.439h-5.448l0.824,4.268  c-5.461,2.406-9.684,4.27-10.12,4.467c-1.323,0.602-2.044,4.689-2.044,4.689l13.539-2.041l0.525,2.721l0.557-2.883l12.782-1.924  l0.405,2.527l0.426-2.654l11.674-1.758l1.803,30.172l-12.621,7.812l0.12,1.803l16.23-2.318l0.599,4.562l0.576-4.564l16.252,2.32  l0.12-1.803l-12.621-7.812l1.803-30.172l11.717,1.764l0.425,2.648l0.404-2.523l12.784,1.926L-130.849,534.295z"/>
<circle fill="none" stroke="#000000" stroke-width="12" stroke-miterlimit="10" cx="976.375" cy="408.875" r="52"/>
<circle cx="976.375" cy="408.875" r="6.75"/>
<line fill="none" stroke="#000000" stroke-width="8" stroke-miterlimit="10" x1="946.549" y1="453.904" x2="940.262" y2="471.034"/>
<line fill="none" stroke="#000000" stroke-width="8" stroke-miterlimit="10" x1="1006.201" y1="453.904" x2="1012.488" y2="471.034"/>
<path d="M914.389,380.309c-8.317-8.07-8.517-21.355-0.447-29.672c8.07-8.316,21.355-8.518,29.672-0.448L914.389,380.309z"/>
<path d="M1038.718,380.309c8.317-8.07,8.516-21.355,0.446-29.672s-21.354-8.518-29.671-0.448L1038.718,380.309z"/>
<line fill="none" stroke="#000000" stroke-width="8" stroke-miterlimit="10" x1="976.375" y1="408.875" x2="976.375" y2="374.834"/>
<line fill="none" stroke="#000000" stroke-width="8" stroke-miterlimit="10" x1="976.375" y1="408.875" x2="994.299" y2="431.167"/>
<path fill="none" stroke="#000000" stroke-width="12" stroke-miterlimit="10" d="M901.748,81"/>
<path d="M907.02,81c0-23.748,19.252-43,43-43s43,19.252,43,43c0,69,18.996,66,18.996,66v13h-42.911h-30.333h-50.748v-13  C888.023,147,907.02,150,907.02,81"/>
<circle fill="none" stroke="#000000" stroke-width="9" stroke-miterlimit="10" cx="950.02" cy="160" r="10.542"/>
<g>
	<path d="M949.27,34c-1.186-1.181-2.081-2.361-3-3.542l-1.237-1.771c-0.366-0.59-0.697-1.181-1.013-1.771   c-0.312-0.59-0.922-1.181-1.425-1.771c-0.481-0.59-0.532-1.181-0.075-1.771c0.426-0.59,1.186-1.181,2.225-1.771   c0.285-0.148,0.506-0.295,0.844-0.443l1.009-0.443l1.255-0.442l0.633-0.222l0.785-0.221h1.5l0.785,0.221l0.633,0.222l1.255,0.442   l1.009,0.443c0.338,0.147,0.559,0.295,0.844,0.443c1.039,0.59,1.799,1.18,2.225,1.771c0.457,0.59,0.406,1.181-0.075,1.771   c-0.503,0.59-1.112,1.181-1.425,1.771c-0.315,0.59-0.646,1.18-1.013,1.771l-1.237,1.771c-0.919,1.18-1.814,2.361-3,3.542H949.27z"/>
</g>
<circle fill="none" stroke="#000000" stroke-width="14" stroke-miterlimit="10" cx="480.389" cy="-223.217" r="65.783"/>
<line fill="none" stroke="#000000" stroke-width="14" stroke-miterlimit="10" x1="431" y1="-223.217" x2="520" y2="-223.217"/>
<polyline fill="none" stroke="#000000" stroke-width="14" stroke-miterlimit="10" points="480.836,-183.553 520,-223.217   480.803,-262.914 "/>
<circle fill="none" stroke="#000000" stroke-width="8.6939" stroke-miterlimit="10" cx="640.111" cy="-289" r="40.851"/>
<line fill="none" stroke="#000000" stroke-width="8.6939" stroke-miterlimit="10" x1="680.962" y1="-289" x2="615.513" y2="-289"/>
<polyline fill="none" stroke="#000000" stroke-width="8.6939" stroke-linecap="round" stroke-miterlimit="10" points="  639.834,-313.631 615.513,-289 639.854,-264.348 "/>
<line fill="none" x1="381.25" y1="-660.5" x2="381.25" y2="-644.75"/>
<path fill="#000000" d="M381.25-618.5c-27.476,0-49.75,22.274-49.75,49.75S353.774-519,381.25-519S431-541.274,431-568.75  S408.726-618.5,381.25-618.5z M381.25-555.375c-7.387,0-13.375-5.988-13.375-13.375s5.988-13.375,13.375-13.375  s13.375,5.988,13.375,13.375S388.637-555.375,381.25-555.375z"/>
<line fill="#000000" stroke="#ED1C24" stroke-miterlimit="10" x1="381.25" y1="-568.75" x2="460.75" y2="-568.75"/>
<path fill="#000000" d="M394.884-616.597c-4.194-1.395-4.259-5.903-4.259-5.903v-6.5c0-2.761-2.239-5-5-5h-8.75  c-2.761,0-5,2.239-5,5v6.5c0,0-0.065,4.508-4.259,5.903c-2.069,0.688,0.859,1.208,4.356,1.558c0.448,2.301,2.471,4.04,4.903,4.04  h8.75c2.432,0,4.455-1.738,4.903-4.04C394.025-615.39,396.954-615.909,394.884-616.597z"/>
<path fill="#000000" d="M357.058-612.224c-3.951,1.979-7.186-1.162-7.186-1.162l-4.596-4.596c-1.953-1.953-5.119-1.952-7.071,0  l-6.188,6.188c-1.952,1.952-1.952,5.118,0.001,7.071l4.596,4.596c0,0,3.141,3.234,1.162,7.186c-0.977,1.95,1.461,0.247,4.182-1.979  c1.943,1.31,4.604,1.109,6.323-0.61l6.188-6.188c1.72-1.72,1.921-4.379,0.61-6.323C357.304-610.762,359.008-613.2,357.058-612.224z"/>
<path fill="#000000" d="M333.403-582.384c-1.395,4.194-5.903,4.259-5.903,4.259l-6.499,0c-2.763,0-5.001,2.24-5.001,5v8.75  c0,2.761,2.239,5,5.001,5h6.5c0,0,4.507,0.066,5.902,4.259c0.688,2.07,1.207-0.858,1.558-4.355c2.3-0.448,4.04-2.471,4.04-4.903  v-8.751c0-2.432-1.739-4.455-4.04-4.903C334.61-581.524,334.091-584.454,333.403-582.384z"/>
<path fill="#000000" d="M337.776-544.558c1.979,3.952-1.162,7.186-1.162,7.186l-4.596,4.595c-1.953,1.954-1.953,5.12-0.001,7.072  l6.188,6.188c1.952,1.952,5.118,1.952,7.071-0.001l4.596-4.596c0,0,3.234-3.141,7.186-1.162c1.949,0.978,0.247-1.46-1.979-4.181  c1.311-1.943,1.109-4.604-0.609-6.324l-6.188-6.188c-1.721-1.72-4.381-1.92-6.324-0.61  C339.238-544.804,336.8-546.507,337.776-544.558z"/>
<path fill="#000000" d="M367.616-520.903c4.193,1.395,4.26,5.903,4.26,5.903l-0.001,6.5c0.001,2.763,2.239,5.001,5,5.001h8.75  c2.761,0,4.999-2.239,5-5.001l-0.001-6.5c0,0,0.066-4.508,4.26-5.903c2.07-0.687-0.857-1.208-4.355-1.557  c-0.447-2.301-2.471-4.04-4.902-4.041l-8.75,0c-2.434,0-4.457,1.74-4.904,4.041C368.476-522.111,365.547-521.591,367.616-520.903z"/>
<path fill="#000000" d="M405.442-525.276c3.951-1.979,7.186,1.162,7.186,1.162l4.596,4.596c1.954,1.953,5.119,1.953,7.071,0.001  l6.188-6.188c1.952-1.952,1.952-5.118-0.001-7.072l-4.596-4.595c0,0-3.141-3.234-1.162-7.186c0.979-1.95-1.461-0.248-4.182,1.979  c-1.942-1.311-4.604-1.11-6.323,0.609l-6.187,6.187c-1.721,1.721-1.922,4.382-0.611,6.325  C405.196-526.738,403.493-524.3,405.442-525.276z"/>
<path fill="#000000" d="M429.097-555.116c1.395-4.194,5.902-4.26,5.902-4.26l6.5,0c2.763-0.001,5.001-2.239,5.001-5v-8.75  c0-2.761-2.238-4.999-5.001-5l-6.498,0c0,0-4.509-0.066-5.904-4.26c-0.686-2.07-1.207,0.858-1.557,4.356  c-2.301,0.447-4.041,2.47-4.041,4.902v8.75c0,2.434,1.74,4.458,4.041,4.905C427.89-555.976,428.409-553.047,429.097-555.116z"/>
<path fill="#000000" d="M424.724-592.941c-1.979-3.952,1.162-7.186,1.162-7.186l4.596-4.596c1.953-1.955,1.953-5.12,0.001-7.072  l-6.188-6.188c-1.952-1.952-5.117-1.952-7.071,0.001l-4.595,4.595c0,0-3.235,3.142-7.187,1.164c-1.949-0.98-0.247,1.46,1.979,4.181  c-1.311,1.943-1.109,4.604,0.609,6.324l6.188,6.187c1.721,1.721,4.382,1.921,6.325,0.611  C423.262-592.696,425.7-590.993,424.724-592.941z"/>
<path fill="#000000" d="M91.384,43.106h-4.489c0,0-3.115-0.045-4.08-2.943c-0.004-0.011-0.007-0.018-0.011-0.029  c-0.728-2.55-1.738-4.979-3.003-7.25c-0.003-0.006-0.004-0.01-0.007-0.016c-1.368-2.731,0.803-4.965,0.803-4.965l3.175-3.176  c1.349-1.35,1.349-3.537,0-4.886l-4.275-4.275c-1.349-1.349-3.536-1.349-4.885,0l-3.175,3.175c0,0-2.235,2.171-4.965,0.804  c-0.006-0.003-0.011-0.004-0.017-0.008c-2.269-1.264-4.697-2.274-7.246-3.002c-0.012-0.004-0.02-0.008-0.033-0.013  c-2.897-0.964-2.943-4.079-2.943-4.079V7.955c0-1.908-1.547-3.455-3.454-3.455h-6.046c-1.908,0-3.454,1.547-3.454,3.455v4.491  c0,0-0.045,3.115-2.943,4.079c-0.013,0.004-0.02,0.008-0.032,0.012c-2.547,0.728-4.975,1.737-7.243,3.001  c-0.007,0.003-0.013,0.005-0.02,0.009c-2.73,1.368-4.964-0.803-4.964-0.803L24.9,15.567c-1.349-1.349-3.537-1.349-4.886,0  l-4.275,4.275c-1.349,1.349-1.349,3.537,0,4.886l3.176,3.176c0,0,2.17,2.234,0.803,4.964c-0.004,0.008-0.005,0.013-0.009,0.021  c-1.264,2.27-2.274,4.698-3.001,7.247c-0.003,0.011-0.007,0.017-0.011,0.028c-0.963,2.897-4.079,2.943-4.079,2.943l-4.49,0  c-1.909,0-3.455,1.547-3.455,3.455v6.046c0,1.907,1.547,3.454,3.455,3.454h4.491c0,0,3.114,0.045,4.078,2.943  c0.003,0.011,0.007,0.017,0.011,0.027c0.728,2.55,1.738,4.979,3.003,7.25c0.003,0.006,0.004,0.011,0.008,0.018  c1.368,2.73-0.803,4.965-0.803,4.965l-3.176,3.175c-1.349,1.35-1.349,3.538,0,4.887l4.275,4.275c1.349,1.349,3.537,1.348,4.886,0  l3.176-3.176c0,0,2.234-2.17,4.964-0.803c0.006,0.003,0.01,0.004,0.016,0.007c2.271,1.265,4.701,2.276,7.252,3.004  c0.01,0.004,0.017,0.007,0.027,0.011c2.897,0.963,2.943,4.078,2.943,4.078l0,4.491c0,1.909,1.547,3.455,3.454,3.455h6.046  c1.907,0,3.454-1.547,3.454-3.455l0-4.491c0,0,0.046-3.114,2.943-4.078c0.011-0.004,0.018-0.007,0.028-0.011  c2.549-0.728,4.977-1.738,7.247-3.001c0.008-0.004,0.013-0.005,0.021-0.009c2.73-1.368,4.964,0.802,4.964,0.802l3.176,3.176  c1.35,1.349,3.537,1.349,4.885,0l4.275-4.275c1.349-1.349,1.349-3.537,0-4.887l-3.175-3.175c0,0-2.17-2.234-0.803-4.964  c0.004-0.007,0.005-0.013,0.009-0.02c1.264-2.27,2.275-4.699,3.002-7.248c0.004-0.01,0.007-0.017,0.011-0.027  c0.963-2.897,4.078-2.943,4.078-2.943h4.491c1.909,0,3.456-1.547,3.456-3.454v-6.046C94.839,44.653,93.293,43.107,91.384,43.106z   M49.756,71.917c-12.334,0-22.334-9.999-22.334-22.333s10-22.333,22.334-22.333c12.334,0,22.333,9.999,22.333,22.333  S62.09,71.917,49.756,71.917z"/>
</svg>